REM DIRINDEX 1\2,1\3,1\4,1\5\6,1\5\7,1\8
REM DIRNAME folder01,folder02,folder03,folder04,folder05,folder06,folder07,folder08
TITLE ""
FILE "035 Åy035ÅzUnit2 (0397 integrate_0408 vital).mp3" MP3
  TRACK 01 AUDIO
    TITLE "0:"
    INDEX 01 00:00:00
  TRACK 02 AUDIO
    TITLE "2:cjc115_1306"
    INDEX 01 00:00:07
  TRACK 03 AUDIO
    TITLE "0:"
    INDEX 01 00:01:21
  TRACK 04 AUDIO
    TITLE "3:cjc115_1307"
    INDEX 01 00:01:24
  TRACK 05 AUDIO
    TITLE "0:"
    INDEX 01 00:03:51
  TRACK 06 AUDIO
    TITLE "4:cjc115_1308"
    INDEX 01 00:03:63
  TRACK 07 AUDIO
    TITLE "0:"
    INDEX 01 00:08:73
  TRACK 08 AUDIO
    TITLE "2:cjc115_1309"
    INDEX 01 00:10:00
  TRACK 09 AUDIO
    TITLE "0:"
    INDEX 01 00:11:23
  TRACK 10 AUDIO
    TITLE "3:cjc115_1310"
    INDEX 01 00:11:27
  TRACK 11 AUDIO
    TITLE "0:"
    INDEX 01 00:13:53
  TRACK 12 AUDIO
    TITLE "4:cjc115_1311"
    INDEX 01 00:13:59
  TRACK 13 AUDIO
    TITLE "0:"
    INDEX 01 00:17:70
  TRACK 14 AUDIO
    TITLE "2:cjc115_1312"
    INDEX 01 00:18:68
  TRACK 15 AUDIO
    TITLE "0:"
    INDEX 01 00:20:14
  TRACK 16 AUDIO
    TITLE "3:cjc115_1313"
    INDEX 01 00:20:22
  TRACK 17 AUDIO
    TITLE "0:"
    INDEX 01 00:21:23
  TRACK 18 AUDIO
    TITLE "4:cjc115_1314"
    INDEX 01 00:21:33
  TRACK 19 AUDIO
    TITLE "0:"
    INDEX 01 00:24:27
  TRACK 20 AUDIO
    TITLE "2:cjc115_1315"
    INDEX 01 00:25:33
  TRACK 21 AUDIO
    TITLE "0:"
    INDEX 01 00:26:69
  TRACK 22 AUDIO
    TITLE "3:cjc115_1316"
    INDEX 01 00:27:00
  TRACK 23 AUDIO
    TITLE "0:"
    INDEX 01 00:28:68
  TRACK 24 AUDIO
    TITLE "4:cjc115_1317"
    INDEX 01 00:28:74
  TRACK 25 AUDIO
    TITLE "0:"
    INDEX 01 00:34:24
  TRACK 26 AUDIO
    TITLE "2:cjc115_1318"
    INDEX 01 00:35:35
  TRACK 27 AUDIO
    TITLE "0:"
    INDEX 01 00:36:62
  TRACK 28 AUDIO
    TITLE "3:cjc115_1319"
    INDEX 01 00:36:70
  TRACK 29 AUDIO
    TITLE "0:"
    INDEX 01 00:38:30
  TRACK 30 AUDIO
    TITLE "4:cjc115_1320"
    INDEX 01 00:38:33
  TRACK 31 AUDIO
    TITLE "0:"
    INDEX 01 00:41:32
  TRACK 32 AUDIO
    TITLE "2:cjc115_1321"
    INDEX 01 00:42:35
  TRACK 33 AUDIO
    TITLE "0:"
    INDEX 01 00:43:56
  TRACK 34 AUDIO
    TITLE "3:cjc115_1322"
    INDEX 01 00:43:62
  TRACK 35 AUDIO
    TITLE "0:"
    INDEX 01 00:47:23
  TRACK 36 AUDIO
    TITLE "4:cjc115_1323"
    INDEX 01 00:47:30
  TRACK 37 AUDIO
    TITLE "0:"
    INDEX 01 00:51:24
  TRACK 38 AUDIO
    TITLE "2:cjc115_1324"
    INDEX 01 00:52:32
  TRACK 39 AUDIO
    TITLE "0:"
    INDEX 01 00:53:74
  TRACK 40 AUDIO
    TITLE "3:cjc115_1325"
    INDEX 01 00:54:07
  TRACK 41 AUDIO
    TITLE "0:"
    INDEX 01 00:57:46
  TRACK 42 AUDIO
    TITLE "4:cjc115_1326"
    INDEX 01 00:57:52
  TRACK 43 AUDIO
    TITLE "0:"
    INDEX 01 01:01:42
  TRACK 44 AUDIO
    TITLE "2:cjc115_1327"
    INDEX 01 01:02:48
  TRACK 45 AUDIO
    TITLE "0:"
    INDEX 01 01:04:07
  TRACK 46 AUDIO
    TITLE "3:cjc115_1328"
    INDEX 01 01:04:11
  TRACK 47 AUDIO
    TITLE "0:"
    INDEX 01 01:05:73
  TRACK 48 AUDIO
    TITLE "4:cjc115_1329"
    INDEX 01 01:06:04
  TRACK 49 AUDIO
    TITLE "0:"
    INDEX 01 01:10:69
  TRACK 50 AUDIO
    TITLE "2:cjc115_1330"
    INDEX 01 01:11:70
  TRACK 51 AUDIO
    TITLE "0:"
    INDEX 01 01:13:18
  TRACK 52 AUDIO
    TITLE "3:cjc115_1331"
    INDEX 01 01:13:24
  TRACK 53 AUDIO
    TITLE "0:"
    INDEX 01 01:16:03
  TRACK 54 AUDIO
    TITLE "4:cjc115_1332"
    INDEX 01 01:16:11
  TRACK 55 AUDIO
    TITLE "0:"
    INDEX 01 01:19:11
  TRACK 56 AUDIO
    TITLE "2:cjc115_1333"
    INDEX 01 01:20:20
  TRACK 57 AUDIO
    TITLE "0:"
    INDEX 01 01:21:45
  TRACK 58 AUDIO
    TITLE "3:cjc115_1334"
    INDEX 01 01:21:49
  TRACK 59 AUDIO
    TITLE "0:"
    INDEX 01 01:24:02
  TRACK 60 AUDIO
    TITLE "4:cjc115_1335"
    INDEX 01 01:24:10
  TRACK 61 AUDIO
    TITLE "0:"
    INDEX 01 01:28:69
  TRACK 62 AUDIO
    TITLE "2:cjc115_1336"
    INDEX 01 01:29:70
  TRACK 63 AUDIO
    TITLE "0:"
    INDEX 01 01:31:08
  TRACK 64 AUDIO
    TITLE "3:cjc115_1337"
    INDEX 01 01:31:14
  TRACK 65 AUDIO
    TITLE "0:"
    INDEX 01 01:33:03
  TRACK 66 AUDIO
    TITLE "4:cjc115_1338"
    INDEX 01 01:33:11
  TRACK 67 AUDIO
    TITLE "0:"
    INDEX 01 01:37:60
  TRACK 68 AUDIO
    TITLE "2:cjc115_1339"
    INDEX 01 01:38:61
  TRACK 69 AUDIO
    TITLE "0:"
    INDEX 01 01:39:64
  TRACK 70 AUDIO
    TITLE "3:cjc115_1340"
    INDEX 01 01:39:72
  TRACK 71 AUDIO
    TITLE "0:"
    INDEX 01 01:41:56
  TRACK 72 AUDIO
    TITLE "4:cjc115_1341"
    INDEX 01 01:41:63
  TRACK 73 AUDIO
    TITLE "0:"
    INDEX 01 01:45:26
